<svg xmlns="http://www.w3.org/2000/svg" viewBox="0 0 1080 1080" width="1080" height="1080" role="img" aria-label="Royal Parma"><title>Royal Parma</title><rect width="1080" height="1080" fill="#102B22"/><g transform="translate(266.44 205.1) scale(1.09533)"><g><path fill="#BE7F43" d="M196.46 67.79C195.7 68.19 195.68 69.09 195.51 69.83L193.46 76.56C191.77 81.16 189.38 85.58 186.18 89.3C181.8 94.38 176.39 98.6 170.15 101.12C168.33 101.86 166.43 102.47 164.54 103.01C163.63 103.28 162.67 103.43 161.8 103.81C161.11 104.1 159.86 104.06 159.38 104.67C159.1 105.04 159.24 108.76 159.23 109.33L159.21 187.39C159.22 189.74 159.1 192.13 159.28 194.46C159.57 198.06 160.15 201.65 160.84 205.19C161.33 207.66 161.84 210.15 162.64 212.55L164.25 217.6L165.8 221.53C166.01 222.18 166.72 224.3 167.66 224.05C168.24 223.88 171.48 221.86 171.54 221.38C171.66 220.52 171.1 219.75 170.8 218.99L168.94 213.99C167.73 210.24 166.73 206.41 166.04 202.53L165.42 198.34C164.81 194.81 164.94 191.19 164.91 187.62L164.83 115.03C164.84 114.2 164.56 109.56 165.18 108.89C165.83 108.18 167.07 108.16 167.95 107.9C169.65 107.4 172.04 106.6 173.61 105.8C179.9 102.62 184.84 99.35 189.55 94.02C193.28 89.81 196.25 84.96 198.29 79.73L199.86 74.92C200 74.55 200.28 73.53 200.72 73.35C201.18 73.18 205.52 73.29 206.2 73.29L299.77 73.3C300.09 73.3 302.42 73.23 302.62 73.35C303.24 73.73 303.71 75.5 303.87 76.16C304.35 78.15 305.18 80.17 306.01 82.04C308.51 87.66 312.26 92.9 316.76 97.1C320.37 100.45 324.48 103.37 328.98 105.37L330.43 106.09C332.25 106.73 334.04 107.58 335.92 108.05C336.68 108.23 337.93 108.32 338.34 109.13C338.64 109.72 338.48 111.96 338.49 112.61L338.47 180.38C338.46 185 338.69 192.29 338.16 196.83C336.3 212.7 329.89 228.32 319.53 240.54C314.46 246.53 308.51 251.72 302.56 256.81C297.69 260.98 292.74 265.08 287.69 269.03C278.94 275.89 270.17 282.67 261.14 289.15L254.44 293.93C253.95 294.27 252.29 295.66 251.65 295.62C250.78 295.56 248.08 293.34 247.37 292.82L236.57 285.02C222.8 274.83 209.26 264.32 196.37 253.02C193.14 250.19 189.92 247.36 187 244.2C186.34 243.47 183.27 239.73 182.71 239.45C181.92 239.05 177.66 239.45 176.94 239.78C176.17 240.13 177.21 241.33 177.46 241.69C178.72 243.44 180.16 245.07 181.6 246.67C187.42 253.12 194.74 259.14 201.4 264.75C213.47 274.88 226.03 284.54 238.86 293.68L248.35 300.42C248.78 300.71 251.28 302.62 251.69 302.58C252.3 302.5 253.95 301.15 254.48 300.78L260.96 296.2L274.77 286.16L284.38 278.82C291.61 273.37 298.58 267.58 305.48 261.73C312.71 255.61 319.89 249.37 325.7 241.86C334.45 230.54 340.21 217.28 342.91 203.25C344.41 195.47 344.13 188.66 344.16 180.8L344.1 108.32C344.1 107.82 344.24 105.14 344.02 104.76C343.69 104.17 342.73 104.19 342.17 104.02L336.93 102.44C331.53 100.69 326.59 98.08 322.23 94.42C317.3 90.29 313.08 84.72 310.73 78.71L309 73.75L308.12 70.76C307.84 69.93 307.87 68.53 307.15 67.96C306.61 67.52 303.76 67.71 303.06 67.7L247.59 67.56L200.48 67.71C200 67.71 196.78 67.62 196.46 67.79ZM204.4 79.33L203.78 79.97C203.39 80.69 203.27 81.54 203 82.3L201.68 85.54C199.66 90.01 197.08 94.17 193.85 97.88C190.27 101.99 186.05 105.52 181.34 108.23L180.05 109.01C177.95 110.02 175.86 111.16 173.63 111.9C172.91 112.13 170.64 112.73 170.22 113.29C169.94 113.65 170.05 116.81 170.05 117.26L170.01 183.39C170.01 185.86 169.88 188.37 170.01 190.83C170.26 195.9 171.09 201.18 172.29 206.12C172.87 208.5 174.03 212.93 175.03 215.06C175.39 215.82 175.66 217.9 176.95 217.35C178.11 216.84 176.91 214.69 176.63 213.95L175.88 211.85C174.51 208.35 173.27 202.49 172.72 198.72L172.19 193.83C171.83 190.82 171.93 187.8 171.92 184.76L171.91 120.08C171.91 119.19 171.65 115.31 172.29 114.57C172.95 113.83 174.12 113.84 174.97 113.42C177.65 112.12 179.9 111.32 182.61 109.73C188.97 105.99 194.48 100.76 198.7 94.73C200.83 91.67 202.59 88.36 204.01 84.92C204.3 84.24 204.99 81.43 205.67 81.18C206.26 80.95 209.9 81.09 210.65 81.09L261.51 80.99L294.91 81.11C295.29 81.11 297.39 81.02 297.68 81.18C298.37 81.55 298.62 82.96 298.85 83.61C299.53 85.53 300.39 87.38 301.31 89.2C304.01 94.54 307.8 99.24 312.15 103.31C315.87 106.8 320.2 109.69 324.81 111.88C326.16 112.52 327.59 113.2 329 113.66C329.81 113.93 330.82 114.05 331.27 114.87C331.61 115.52 331.42 117.31 331.43 118.01L331.41 191.67C331.2 195.11 330.37 200.77 329.61 204.14C326.97 215.72 321.59 226.73 314 235.88C310.52 240.06 306.55 243.59 302.51 247.2C296.79 252.29 290.91 257.19 284.91 261.95C276.92 268.3 268.84 274.51 260.6 280.52L254.35 285.02C253.63 285.54 252.59 286.64 251.62 286.61C250.71 286.56 248.84 284.91 248.02 284.33L238.64 277.51C226.75 268.72 215.09 259.55 203.87 249.91C200.19 246.77 196.58 243.62 193.19 240.18C192.59 239.59 191.04 237.69 190.38 237.44C190.05 237.31 189.6 237.4 189.3 237.54C188.42 237.97 189.28 238.75 189.65 239.19C190.84 240.58 192.16 241.86 193.47 243.13C198.83 248.3 204.58 253.07 210.34 257.8C217.08 263.36 223.94 268.78 230.9 274.06C234.36 276.68 237.81 279.35 241.37 281.84L248.88 287.26C249.24 287.53 251.27 289.12 251.71 289.03C252.55 288.86 253.88 287.69 254.56 287.18L260.43 282.99C267.53 277.79 274.61 272.55 281.5 267.08C287.55 262.29 293.55 257.44 299.42 252.41C305.34 247.35 311.3 242.21 316.23 236.14C323.73 226.87 329.03 215.66 331.57 204.03C332.47 199.91 333.13 195 333.34 190.83C333.52 187.14 333.34 183.4 333.34 179.7L333.29 116.65C333.29 116.09 333.42 113.82 333.14 113.32C332.91 112.91 332 112.69 331.62 112.54C330.12 111.94 328.55 111.51 327.08 110.85C322.49 108.81 318.24 106.13 314.43 102.83C309.81 98.8 305.95 93.96 303.12 88.53C302.09 86.53 301.13 84.48 300.37 82.37C300.04 81.45 299.95 80.14 299.17 79.47C298.57 78.95 296.62 79.17 295.9 79.16L207.96 79.15C207.37 79.15 204.91 79.02 204.4 79.33Z"/><path fill="#BE7F43" d="M250.94 0.81C250.29 1.39 249.92 2.29 249.19 2.77C248.62 3.14 245.83 2.99 246.1 4.69C246.18 5.21 248.54 5.5 249.16 5.9C249.75 6.28 251.56 8.4 250.53 8.95C249.99 9.24 243.53 10.29 242.27 10.54L240.37 11.01L235.89 11.57C229.92 12.41 223.99 13.31 218.25 15.24C213.38 16.86 208 19.88 206.79 25.28C205.35 31.62 207.99 38.95 210.27 44.81C210.74 46 211.82 49.02 212.4 49.96C212.61 50.32 212.92 50.64 213.29 50.84C214 51.2 216.45 50.99 217.27 51L288.07 50.98C288.9 50.97 289.82 51.14 290.49 50.53C291.3 49.78 291.6 48.4 292 47.4L294.72 40.26C295.86 37.24 296.28 35.07 296.75 31.89C297 30.26 297.03 28.6 296.84 26.97C296.25 21.87 293.04 18.82 288.56 16.64C282.2 13.54 274.73 12.62 267.8 11.62L263.12 11.04L261.08 10.54C259.71 10.27 253.73 9.3 253.03 9.05C251.61 8.54 253.49 6.36 254.18 5.9C254.83 5.49 257.22 5.21 257.25 4.63C257.33 2.85 254.9 3.32 254.1 2.73C253.35 2.19 253 1.23 252.23 0.7C251.8 0.4 251.34 0.47 250.94 0.81ZM248.25 13.11C248.91 13.4 248.99 14.51 249.06 15.12C249.33 17.21 249.3 19.35 249.32 21.46C249.37 27.99 249.62 35.37 247.08 41.54C245.9 44.39 243.2 47.52 239.74 46.12C237.02 45.03 235.98 41.73 235.39 39.13C234.64 35.8 234.87 32.23 234.86 28.83C234.85 23.95 234.03 20.47 238.03 17.02C240.71 14.71 241.87 14.85 244.83 13.69C245.79 13.31 247.25 12.68 248.25 13.11ZM256.62 13.13C257.81 13.33 260.02 14.09 261.18 14.54C262.29 14.96 263.34 15.55 264.31 16.23C268.56 19.27 268.5 21.6 268.5 26.39L268.44 34.02C268.35 38.14 267.21 47.28 261.34 46.37C258.24 45.89 256.66 42.92 255.77 40.19C253.82 34.17 253.97 27.72 254.02 21.48C254.04 19.41 254.02 17.32 254.26 15.27C254.34 14.65 254.38 13.56 254.97 13.17C255.49 12.83 256.05 13.04 256.62 13.13ZM232.6 15.65C233.17 16.08 231.66 17.92 231.38 18.44C230.41 20.24 230.21 21.53 230.15 23.5L230.04 30.82C229.99 35.13 229.99 39.51 227.66 43.34C225.71 46.53 221.2 48.53 217.84 46.2C216.23 45.09 215.13 43.36 214.28 41.63C212.05 37.16 209.6 28.13 212.36 23.58C214.35 20.32 218.27 18.82 221.73 17.71C224.32 16.88 227.01 16.32 229.68 15.87C230.41 15.75 231.99 15.21 232.6 15.65ZM272.67 15.69C278.76 16.89 289.39 18.41 291.73 25.18C293.3 29.75 290.8 39.02 288.34 43.02C286.7 45.69 284.13 47.73 280.85 47.09C276.15 46.17 274.07 41.05 273.53 36.77C273.22 34.39 273.32 31.94 273.29 29.54L273.23 25.13C273.18 22.61 273.24 20.9 272.04 18.59C271.75 18.02 270.4 16.32 270.6 15.83C270.87 15.15 272.23 15.61 272.67 15.69ZM214.27 55.13C212.99 55.39 213.08 56.77 213.09 57.82C213.11 58.52 212.95 60.25 213.95 60.49C214.96 60.74 218.73 60.57 219.9 60.57L285.65 60.56C286.47 60.56 289.31 60.86 289.88 60.13C290.21 59.72 290.2 59.06 290.22 58.56C290.26 57.71 290.44 56.51 290.01 55.72L289.53 55.25C288.6 54.91 284.72 55.1 283.68 55.1L220.24 55.08C219 55.08 215.35 54.91 214.27 55.13Z"/><path fill="#E2DDC8" d="M239.05 132.87L239.61 133.43C240.02 134.23 240.11 136.82 240.14 137.9L240.23 204.19L240.12 211.14C239.72 216.32 238.65 221.31 236.31 225.95C235.37 227.8 234.14 229.36 232.73 230.87C232.54 231.07 231.48 232.1 232.05 232.39C232.49 232.61 234.03 232.43 234.54 232.44L270.43 232.44C270.74 232.44 272.72 232.56 272.92 232.4C273.42 231.99 271.03 229.65 270.57 229.07C268.98 227.06 267.98 224.76 267.04 222.41C264.45 215.96 264.61 208.54 264.64 201.71C264.64 200.92 264.47 195.13 264.85 194.57C265.13 194.16 266.43 194.33 266.81 194.32L273.11 194.23C281.06 194.16 288.64 193.94 296.24 191.25C302.07 189.19 307.62 185.5 311.36 180.54C319.56 169.7 321.18 150.63 316.16 138.16C314.04 132.91 310.59 128.21 306.08 124.76C294.56 115.93 281.65 116.46 268.07 116.43L238.58 116.41C223.66 116.42 208.98 115.46 196.29 124.93C192.83 127.51 189.56 131.07 187.78 135.04C186.76 137.31 185.65 139.55 185.13 142.01C182.66 153.46 184.18 165.3 192.01 174.41C194.77 177.61 198.2 180.1 201.94 182.05L207.43 184.44C207.7 184.68 207.76 185 207.64 185.34C207.25 186.5 205.95 187.93 205.24 188.95L199.84 196.68C194.1 204.85 186.05 216.75 178.5 222.94C174.7 226.05 170.48 228.83 165.91 230.66L160.59 232.45C160.37 232.53 158.37 233.11 159.36 233.42L161.88 233.84C165.58 234.43 168.56 234.66 172.35 234.67L178.36 234.5L181.95 233.87C194.71 231.67 205.28 224.99 213.66 215.22C218.27 209.85 221.71 203.56 225.48 197.61L234.32 183.5C234.99 182.48 237.66 178.72 237.63 177.85C237.6 177.05 236.13 177.25 235.65 177.25L229.22 177.2C223.96 177.09 219.04 175.55 215.07 171.99C208.27 165.9 205.97 152.84 209.05 144.48C210.22 141.29 212.67 138.2 215.53 136.37C220.48 133.23 225.2 133 230.85 132.94L239.05 132.87ZM265.27 177.48L264.67 176.87L264.64 146.1L264.81 136.91C264.88 135.87 264.87 134.17 265.48 133.34C266.04 132.57 270.95 132.92 271.88 132.93C278.4 133.05 285.33 133.62 290.05 138.67C291.32 140.04 292.37 141.58 293.12 143.29C295.95 149.74 296.01 160.41 293.2 166.86C291.92 169.78 289.79 172.5 287.1 174.25C280.65 178.42 272.58 177.72 265.27 177.48Z"/></g><path fill="#E2DDC8" d="M165.45 326.2C162.32 326.38 159.23 326.61 156.14 327.14C142.95 329.41 131.36 335.92 123.31 346.72C117.04 355.12 113.94 365.65 113.11 376C111.61 394.79 116.86 413.72 132.16 425.74C135.02 427.98 138.14 429.9 141.44 431.44C150.83 435.8 161.19 437 171.46 436.41C187.5 435.49 203.27 427.68 212.46 414.27C219.57 403.89 222.37 391.69 222.19 379.22C222.05 369.44 219.98 359.7 215.13 351.14C209.49 341.19 200.26 333.51 189.53 329.63C181.91 326.86 173.55 325.74 165.45 326.2ZM169.73 341.79C173.88 342.11 178.05 343.04 181.8 344.83C184.76 346.25 187.4 348.25 189.68 350.6C199.17 360.47 200.65 375.55 199.46 388.56C199.11 392.38 198.15 396.2 196.85 399.8C191.89 413.44 179.82 422.03 165.16 420.89C159.15 420.42 153.28 418.76 148.43 415.05C140.29 408.79 136.83 398.76 135.7 388.91C133.86 372.92 137.05 353.74 152.38 345.23C154.65 343.97 157.15 343.1 159.67 342.52C162.91 341.77 166.42 341.53 169.73 341.79ZM26.07 329.11C25.61 329.33 26.17 329.92 26.38 330.09C27.63 331.09 28.63 332.43 29.47 333.76C31.38 336.8 32.73 341.04 33.14 344.61L33.58 348.4L33.57 404.29C33.56 409.05 33.78 413.87 33 418.6C32.41 422.23 31.31 425.89 29.36 429.04C28.56 430.33 27.59 431.51 26.44 432.51C26.27 432.66 25.48 433.3 26.07 433.46C27.07 433.72 33.55 433.56 34.73 433.56L59.25 433.53C59.55 433.53 61.11 433.64 61.3 433.32C61.48 433.04 60.68 432.36 60.49 432.16C59.45 431.05 58.61 429.78 57.87 428.45C56 425.08 54.89 421.04 54.54 417.21C54.01 411.61 54.22 405.95 54.21 400.34L54.24 345.87C54.25 344.96 53.91 344.13 55.09 344.05C57.39 343.89 59.72 343.91 62.03 343.89C67.27 343.84 72.55 343.95 77.17 346.75C78.27 347.41 79.38 348.2 80.26 349.13C81.68 350.62 82.63 352.27 83.48 354.11C84.26 355.79 84.59 357.68 84.74 359.52C84.94 362.02 84.83 364.6 84.37 367.07C83.31 372.65 79.88 376.99 74.43 378.84C72.83 379.38 71.18 379.63 69.52 379.91C66.63 380.4 63.6 380.18 60.68 380.23C60.1 380.24 58.4 380.11 57.9 380.31L57.76 380.57C57.77 380.93 58.46 381.86 58.69 382.19L60.54 385.37C63.05 389.97 65.82 394.46 68.5 398.98L77.21 413.93C79.38 417.64 81.36 421.43 84.53 424.42C90.75 430.3 99.19 432.47 107.57 432.55C110.4 432.58 113.34 432.36 116.11 431.78C116.89 431.62 117.82 431.66 118.56 431.34C119.14 431.09 118.52 430.58 118.21 430.45C116.77 429.87 115.37 429.23 114.03 428.44C110.93 426.59 108.26 424.1 105.82 421.46C102.33 417.66 99.67 413.23 96.99 408.84L87.82 393.94C87.41 393.27 86.22 391.64 86.06 391C85.9 390.35 88.18 389.67 88.7 389.47C91.72 388.28 94.61 386.47 97 384.27C103.06 378.67 105.78 371.16 106.1 363.04C106.22 359.77 106.09 354.71 105.02 351.59C103.92 348.35 102.97 345.6 100.92 342.77C95.12 334.83 85.95 330.78 76.38 329.6C72 329.06 67.6 329.08 63.19 329.06L28.04 329.08C27.64 329.08 26.42 328.95 26.07 329.11ZM285.44 329.03C285.29 329.19 285.11 329.33 285.08 329.55C285 330.07 285.34 330.7 285.42 331.22L285.52 332.85C285.48 335.51 284.63 338.13 283.7 340.6C282.53 343.71 280.63 346.59 278.95 349.44L270.41 364.41C269.02 366.84 267.6 369.27 266.47 371.83C266.27 372.28 265.59 374.35 265.19 374.39C264.8 374.44 264.52 373.69 264.41 373.42L263.01 370.04C261.37 366.67 259.42 363.52 257.56 360.27L251.29 349.36C248.98 345.37 246.9 342.07 245.51 337.59C244.9 335.65 244.56 333.51 244.72 331.48C244.76 331 245.2 329.48 244.83 329.22C244.38 328.91 241.22 329.07 240.61 329.07L217.23 329.06C216.83 329.06 213.7 328.96 213.53 329.26C213.34 329.58 213.84 329.98 214.04 330.16L216.34 332.46C219.38 335.72 221.94 339.44 224.31 343.21C230.32 352.69 235.86 362.47 241.77 372.02L249.94 385.46C251.21 387.57 252.62 389.62 253.78 391.79L254.16 392.57C254.31 393.24 254.17 399.09 254.18 400.27C254.2 406.62 254.59 416.32 252.38 422.32C251.36 425.1 250.23 427.73 248.43 430.12C247.76 431.01 246.89 431.85 246.03 432.55C245.83 432.71 245.16 433.08 245.45 433.4C245.65 433.62 247.38 433.51 247.69 433.52L280.89 433.52C281.28 433.51 282.95 433.62 283.27 433.48C283.71 433.28 283.26 432.89 283.04 432.74C282.05 432.07 281.15 431.25 280.38 430.34C278.68 428.34 277.13 425.21 276.47 422.67C276.09 421.18 275.67 419.71 275.4 418.19C274.39 412.5 274.67 406.56 274.69 400.82L274.71 394.57C274.71 393.92 274.57 392.26 274.71 391.72C274.88 391.09 277 387.96 277.48 387.16L304.2 343.1C306.44 339.4 309.01 335.7 311.94 332.5L314.27 330.15C314.52 329.93 314.97 329.59 314.73 329.2C314.6 329 313.21 329.07 312.98 329.07L285.44 329.03ZM327.78 411.28L362.93 411.26C363.45 411.27 365.63 411.11 366.04 411.31C366.78 411.69 367.39 414.2 367.72 415.03C368.65 417.3 369.66 421.03 369.9 423.47C370.04 424.93 370 426.42 369.96 427.88C369.91 429.2 369.55 430.45 368.96 431.63C368.8 431.94 367.74 433.23 368.12 433.41C368.59 433.64 369.47 433.5 369.97 433.5L446.73 433.62C452.66 433.64 458.58 433.51 464.48 433.98L468.66 434.54C469.07 434.6 469.82 434.83 470.18 434.52C470.65 434.11 470.64 432.99 470.71 432.44L471.4 427.02C471.64 424.27 472.13 421.52 472.51 418.78L473.37 411.87C473.54 410.5 474.18 406.97 474.15 405.81C474.14 405.29 473.56 405.59 473.36 405.82L471.03 408.5C469 410.53 466.68 412.51 464.11 413.81C454.26 418.79 448.33 418.51 437.74 418.56L431.23 418.57C430.92 418.57 429.36 418.64 429.16 418.3C428.93 417.93 429.06 417.11 429.06 416.71L429.11 353.32C429.13 350.69 429.04 348.02 429.39 345.41C429.94 341.28 431.17 336.86 433.48 333.36C434.2 332.26 435.05 331.22 436 330.32C436.21 330.12 436.88 329.58 436.76 329.22C436.73 329.09 435.05 329.12 434.83 329.12L403.23 329.04C402.68 329.05 401.37 328.88 400.87 329.11C400.23 329.39 402.02 330.82 402.3 331.12C403.4 332.32 404.32 333.67 405.07 335.13C407.28 339.46 408.26 344.47 408.39 349.33L408.33 414.6L407.99 417.11C407.42 421.26 406.34 425.18 404.22 428.81C403.78 429.58 401.85 432.57 400.98 432.49C400.43 432.44 399.58 431.31 399.22 430.9C397.74 429.22 396.4 427.44 395.17 425.57C389.84 417.47 386.98 409.53 383.9 400.43L366.12 350.63C365.61 349.16 364.97 347.72 364.53 346.23C363.67 343.23 363.24 340.21 363.7 337.11C363.8 336.44 363.88 335.74 364.11 335.1C364.71 333.45 365.35 331.97 366.43 330.57C366.62 330.32 367.44 329.47 367.16 329.16L357.78 329.05L330.91 329.06C330.28 329.07 328.72 328.93 328.14 329.12C327.72 329.26 328.32 330.03 328.43 330.16C329.35 331.3 330.08 332.43 330.63 333.79C331.77 336.61 331.95 341.06 331.22 343.98C330.07 348.62 328.24 353.07 326.69 357.57L311.43 401.54C309.56 406.95 307.79 412.35 305.26 417.5C303.4 421.29 301.22 424.96 298.69 428.34C297.71 429.65 296.66 430.92 295.52 432.1C295.35 432.28 294.45 433.05 294.67 433.34C294.88 433.61 297.2 433.51 297.56 433.51L324.41 433.5C324.68 433.5 325.38 433.61 325.57 433.33C325.75 433.07 325.08 432.25 324.94 431.99C324.22 430.73 323.97 429.25 323.84 427.82C323.55 424.78 324.05 421.54 324.91 418.62L325.9 415.61C326.16 414.74 326.96 412.38 327.37 411.67L327.78 411.28ZM347.1 349.46C347.4 349.9 347.42 351.78 347.57 352.49L349.33 360.6C350.83 366.64 352.93 372.55 355.07 378.4L360.3 393.44C360.5 394.03 361.36 395.69 361.01 396.23C360.76 396.62 359.72 396.46 359.36 396.46L339.87 396.47C338.86 396.47 333.81 396.63 332.93 396.36C332.42 396.21 333.04 394.9 333.14 394.61L340.51 373.55L342.87 366.13C343.97 362.63 344.97 358.51 345.57 354.9L346.28 350.42C346.33 350.08 346.37 349.4 346.83 349.36L347.1 349.46Z"/><path fill="#BE7F43" d="M0.51 441.38C0.13 441.67 0.7 442.17 0.88 442.34L3.03 444.62C4.62 446.62 5.82 449.15 6.51 451.6C6.97 453.24 7.41 454.89 7.67 456.57C8.52 462.12 8.16 470.23 8.16 476.03L8.16 508.91C8.16 515.75 8.48 522.66 7.79 529.46C7.35 533.81 5.91 538.16 3.62 541.88C2.93 543 2.04 543.94 1.12 544.87C0.95 545.04 0.25 545.59 0.37 545.91C0.43 546.08 2.05 546.04 2.26 546.04L34.61 546.1C34.91 546.1 36.28 546.21 36.51 546.02C36.74 545.84 36.26 545.38 36.15 545.27L34.35 543.39C32.98 541.79 31.86 539.77 31.13 537.79C28.67 531.17 28.81 525.36 28.78 518.41L28.79 513.55C28.79 513.13 28.61 512.15 28.91 511.77C29.15 511.48 29.95 511.57 30.26 511.55L34.3 511.5C38.32 511.47 44.54 511.71 48.51 511.16C53.09 510.52 57.72 509.62 61.9 507.56C73.99 501.59 78.74 490.26 79.1 477.32C79.2 473.49 78.99 468.51 77.85 464.84C76.86 461.66 75.78 458.53 73.86 455.75C72.35 453.57 70.7 451.59 68.68 449.84C62.2 444.26 53.47 441.96 45.09 441.47C42.51 441.32 39.9 441.42 37.33 441.41L0.51 441.38ZM28.76 456.72C29.48 456.1 30.56 456.34 31.46 456.33L37.6 456.37C40.29 456.4 42.91 456.41 45.53 457.15C47.23 457.64 48.95 458.28 50.44 459.25C56.58 463.24 57.91 470.64 57.74 477.46C57.55 485.2 54.66 492.62 46.81 495.36C45.24 495.9 42.67 496.47 41.03 496.62C39.89 496.73 38.68 496.62 37.54 496.62L31.37 496.59C30.93 496.59 29.32 496.7 28.98 496.34C28.69 496.03 28.82 495.35 28.81 494.99L28.76 456.72ZM101.61 523.64L136.66 523.66C137.49 523.67 139.49 523.53 140.26 523.88C140.48 523.98 140.56 524.74 140.62 524.89L141.74 527.91L142.75 531.05C143.67 534.22 144.11 537.63 143.77 540.92C143.64 542.07 143.36 543.19 142.78 544.21C142.6 544.53 141.6 545.73 141.89 545.99C142.07 546.15 145.31 546.1 145.58 546.1L207.13 546.1C207.43 546.09 210.01 546.19 210.17 545.98C210.4 545.69 209.46 544.79 209.27 544.57C208.04 543.21 207.08 541.69 206.26 540.05C204.24 536.01 203.2 531.05 203.1 526.52C202.92 518.18 203.04 509.83 203.04 501.49L203.04 456.58C203.92 456.16 205.06 456.31 206.01 456.29L211.57 456.2C218.11 456.1 224.19 456.6 229.11 461.47C230.34 462.69 231.55 464.2 232.16 465.84C232.77 467.47 233.3 469.05 233.51 470.79C233.84 473.48 233.75 476.19 233.35 478.88C232.14 487.13 226.02 491.61 218.02 492.36C215.17 492.63 212.26 492.5 209.4 492.53C209.08 492.53 206.76 492.42 206.68 492.79C206.57 493.29 207.11 493.98 207.35 494.36L209.51 498.02C210.61 500.1 211.89 502.11 213.1 504.14L226.54 527.14C229.05 531.4 230.87 534.85 234.78 538.11C240.48 542.86 248.04 544.88 255.36 545.03C257.11 545.07 258.86 545.03 260.59 544.89C261.54 544.81 262.58 544.51 263.53 544.56C264.41 544.62 262.98 545.84 263.55 546.02C264.15 546.2 266.06 546.07 266.74 546.07L288.78 546.12C291.18 546.12 293.59 546.21 295.99 546.11C296.64 546.08 296.03 545.21 295.87 545.01C294.82 543.74 293.95 542.23 293.4 540.66C292 536.6 291.56 532.65 291.61 528.37C291.64 525.89 291.83 523.42 291.97 520.94L293.29 495.98L293.35 485.06L293.17 479.03L292.75 474.02C292.71 473.38 292.32 470.67 292.63 470.37C293.15 469.84 293.42 471.5 293.46 471.69L295.08 476.87C296.44 481.23 298.34 485.39 300.42 489.45C302.64 493.78 305.34 497.87 307.93 501.99L319.11 519.87C320.91 522.79 322.82 525.65 324.42 528.68C326.14 531.94 327.56 535.29 328.6 538.83C328.8 539.5 329.01 542.09 329.91 542.13C330.12 542.15 330.32 542.07 330.43 541.88C330.59 541.63 331.09 538.89 331.2 538.36C331.94 534.71 334.3 529.86 336.08 526.58C338.17 522.72 340.56 519.01 342.77 515.22L351.55 500.24C354.63 495.08 357.74 489.94 360.27 484.48C361.93 480.92 363.37 477.34 364.72 473.66C364.94 473.05 365.54 470.22 366.24 470.24C366.66 470.26 366.31 471.74 366.3 471.79L365.81 476.8C365.34 480.96 365.3 485.17 365.35 489.35C365.4 493.09 365.74 496.78 366 500.51L367.45 520C367.68 523.22 368.02 526.42 368.06 529.65C368.11 532.88 367.83 536.07 366.83 539.16L366.44 540.39C365.86 541.63 365.37 542.87 364.59 544.01C364.39 544.29 363.14 545.73 363.39 545.95C363.58 546.12 366.02 546.05 366.33 546.05L419.83 546.11C420.24 546.11 423.11 546.24 423.4 546.04C423.55 545.94 423.52 545.73 423.47 545.58C423.23 544.82 422.54 544.08 422.21 542.87C421.6 540.69 421.71 538.79 421.77 536.5C421.85 533.73 423.28 529.52 424.22 526.88C424.45 526.23 425.15 524.03 425.61 523.71C425.78 523.59 428.78 523.66 429.12 523.65L462.83 523.71C463.08 523.71 464.19 523.63 464.35 523.84C464.82 524.45 465.6 527.05 465.89 527.91C467.18 531.69 468.18 535.59 468.08 539.61C468.03 541.06 467.73 542.64 467.08 543.94C466.88 544.34 465.63 545.9 466.14 546.1C466.51 546.24 467.94 546.12 468.37 546.13L497.65 546.03C497.86 546.02 499.39 546.1 499.42 545.87C499.47 545.47 498.9 545.03 498.66 544.8L496.24 542.16C493.45 538.75 491.13 534.92 489.11 531.01C486.18 525.33 484.24 519.24 482.08 513.23C478.94 504.46 475.93 495.65 472.66 486.92L466.21 468.7C464.69 464.52 462.35 458.88 461.64 454.61C461.14 451.63 461.54 448.31 462.78 445.55C463.26 444.46 463.94 443.34 464.75 442.46C464.93 442.26 465.46 441.71 465.09 441.43C464.92 441.31 462.72 441.37 462.44 441.36L435.54 441.34C434.21 441.34 427.24 441.17 426.1 441.44C425.46 441.59 426.96 443.18 427.17 443.47C428.01 444.67 428.75 446.14 429.04 447.59C430.11 453.01 429.46 456.12 427.67 461.23L410.27 511.22C409.7 512.87 409.24 514.59 408.55 516.19L405.71 524.23C404.04 528.54 401.87 532.77 399.38 536.67L396.3 541.14C396.09 541.43 395.48 542.51 394.99 542.1C394.1 541.36 392.79 538.28 392.29 537.13C389.84 531.56 389.05 525.87 388.65 519.85L384.87 472.27C384.6 469.15 384.29 466.05 384.29 462.91C384.28 457.99 385.21 452.01 387.62 447.68C388.47 446.17 389.42 444.71 390.69 443.5C391 443.2 392.98 441.72 392.6 441.45C392.41 441.31 389.02 441.36 388.65 441.36L359.98 441.4C359.74 441.41 358.75 441.33 358.56 441.45C358.29 441.63 358.62 442.21 358.69 442.42C358.97 443.37 359.21 444.35 359.16 445.35C359.03 447.92 357.95 450.52 356.8 452.78C355.75 454.89 354.53 456.92 353.35 458.95L349.04 466.55C345.56 472.58 342.28 478.74 338.74 484.75C336.65 488.28 334.84 492.02 333.2 495.77L332.08 498.52C331.33 500.23 330.9 502.08 330.37 503.86C330.28 504.17 330.01 505.46 329.6 505.37C329.21 505.28 329.12 504.51 329.05 504.21L328.26 500.61C327.13 495.72 325.24 491.02 323.03 486.52C321.47 483.32 319.64 480.29 317.88 477.2L307.92 459.99C306.54 457.63 305.12 455.3 303.84 452.87C302.61 450.54 301.72 447.86 301.59 445.21C301.54 444.27 301.73 443.25 302.03 442.36C302.11 442.15 302.4 441.6 302.12 441.42C301.86 441.25 297.76 441.35 297.3 441.35L272.46 441.38C272.1 441.38 268.72 441.3 268.48 441.49C268.1 441.79 269.88 443.17 270.14 443.42C271.3 444.6 272.19 445.92 273 447.34C275.09 451.05 276.08 456.94 276.19 461.2C276.28 464.42 275.92 467.62 275.72 470.84L272.16 523.93C271.68 529.14 270.92 533.68 268.43 538.36C267.97 539.22 266.56 542.22 265.57 542.19C264.84 542.17 263.74 541.37 263.09 540.97C261.09 539.73 259.28 538.34 257.55 536.74C252.64 532.23 249.2 526.64 245.75 521L236.4 505.81C236.16 505.41 234.85 503.53 234.88 503.21C234.93 502.82 237.29 502.01 237.82 501.77C240.77 500.49 243.46 498.86 245.86 496.72C251.75 491.48 254.48 483.98 255.02 476.27C255.29 472.32 255.02 468.39 254.15 464.53C253.56 461.95 252.47 459.45 251.18 457.15C250.06 455.14 248.61 453.32 247.01 451.69C241.74 446.35 234.64 443.44 227.34 442.22L225.19 441.83C219.53 441.17 213.76 441.36 208.07 441.34L176.86 441.38C176.35 441.39 175.18 441.25 174.69 441.44C174.13 441.65 175.94 443.14 176.2 443.41C177.32 444.56 178.19 445.88 178.94 447.29C181.18 451.54 182.13 456.47 182.33 461.24C182.5 465.19 182.33 469.36 182.33 473.34L182.33 517.05C182.33 520.11 182.53 523.25 182.28 526.31L181.95 530.23C181.45 533.87 180.18 538.16 178.25 541.3C177.6 542.37 176.87 543.35 176 544.24C175.76 544.48 175.33 545.09 174.94 545.02C174.46 544.95 174.04 544.37 173.73 544.04C172.74 542.95 171.75 541.83 170.89 540.63C167.52 535.92 164.52 530.87 162.41 525.48C158.87 516.48 155.8 507.28 152.55 498.17L139.39 461.38C137.9 457.15 136.59 452.62 137.77 448.12C138.18 446.55 138.74 445.04 139.65 443.69C139.88 443.34 141.49 441.67 140.93 441.42C140.55 441.26 138.85 441.37 138.39 441.36L101.82 441.45C101.54 441.82 102.16 442.38 102.37 442.63C103.18 443.61 103.94 444.79 104.37 445.99C105.56 449.37 105.66 452.84 104.96 456.34C104.49 458.74 103.54 461.04 102.74 463.35L85.62 512.64C83.08 519.96 80.74 527.37 76.79 534.1C74.96 537.2 72.98 540.23 70.63 542.99C70.24 543.45 68.2 545.51 68.3 545.9C68.37 546.19 69.69 546.08 69.91 546.08L99.31 546.07C99.59 545.85 98.6 544.31 98.43 543.94C97.87 542.7 97.67 541.35 97.6 540.01C97.36 535.72 98.28 531.28 99.92 527.33C100.39 526.22 100.65 524.4 101.61 523.64ZM120.92 461.87L121.66 466.34C122.15 469 122.8 471.64 123.49 474.27C125.38 481.44 128.37 489.53 130.88 496.58L133.97 505.44C134.2 506.05 135.17 508.17 134.92 508.66C134.83 508.85 133.55 508.82 133.34 508.82L113.44 508.89C112.32 508.88 107.46 509 106.58 508.74C106.24 508.64 106.82 507.25 106.92 506.94L111.93 492.57C113.75 487.43 115.58 482.29 117.08 477.04C118.07 473.59 118.86 470.09 119.53 466.56L120.15 462.47C120.2 462.25 120.26 461.3 120.69 461.51L120.92 461.87ZM444.89 461.64C445.42 462.28 445.51 464.56 445.64 465.41C446.09 468.18 446.83 470.9 447.47 473.63C448.46 477.77 450.08 482.35 451.5 486.38L455.52 497.96C456.46 500.56 457.57 503.42 458.36 506.03C458.48 506.46 459.33 508.32 459.08 508.66C458.92 508.88 457.64 508.85 457.4 508.86L437.75 508.89C436.51 508.89 431.91 509.08 430.8 508.74C430.38 508.61 430.97 507.27 431.05 507.05L432.86 501.82C435.38 494.38 438.27 487.05 440.51 479.52C441.7 475.56 442.7 471.53 443.52 467.47L444.28 462.74C444.3 462.53 444.37 461.02 444.89 461.64Z"/><path fill="#E2DDC8" d="M477.14 329.27C476.47 329.43 475.75 329.44 475.08 329.64L474.38 329.95L473.69 330.17L473.23 330.44L472.53 330.76C471.02 331.59 469.45 332.94 468.51 334.4L467.72 335.95L467.46 336.36C467.24 336.83 467.06 337.4 466.92 337.9C464.83 345.26 470.05 352.96 477.78 353.29C478.74 353.33 479.78 353.36 480.72 353.15C485.64 352 489.18 348.53 490.12 343.54C490.34 342.42 490.44 341.32 490.35 340.17C490.29 339.47 490.08 338.41 489.88 337.76L489.62 337.16C489.37 336.47 489.12 335.79 488.76 335.14C487.05 332.11 483.89 329.96 480.48 329.41C479.39 329.23 478.25 329 477.14 329.27ZM480.36 331.4L481.7 331.75L482.22 332.02C484.77 333.12 486.42 334.62 487.54 337.18C487.86 337.92 488.16 338.72 488.3 339.52C488.51 340.69 488.54 342.07 488.27 343.23L487.96 344.19C487.12 346.97 485.54 348.92 482.9 350.21L482.31 350.55C481.12 351.1 479.81 351.27 478.51 351.28C477.61 351.28 476.68 351.25 475.81 351C470.86 349.53 467.78 344.91 468.48 339.76C468.6 338.95 468.99 337.9 469.32 337.17L469.5 336.67C470.65 334.45 472.25 333.01 474.53 332.04L475.14 331.74L476.13 331.5C477.49 331.13 478.99 330.99 480.36 331.4ZM477.73 342.49C479.12 343.52 479.78 344.84 480.61 346.3C480.88 346.77 481.09 347.5 481.44 347.87C481.74 348.2 483.25 348.3 483.59 348.04C483.92 347.8 483.17 346.84 483 346.56C482.41 345.53 481.87 344.44 481.11 343.53C480.84 343.2 480.03 342.52 479.97 342.16C479.94 341.95 480.35 341.89 480.48 341.83C481.06 341.62 481.58 341.27 482 340.82C482.59 340.2 483.11 339.09 483.14 338.23C483.15 337.96 483.07 337.68 483 337.42C482.91 337.06 482.84 336.67 482.68 336.33C482.4 335.77 481.73 335.08 481.16 334.81C479.9 334.22 476.6 334.3 475.22 334.31C474.8 334.32 473.47 334.19 473.23 334.62C473.06 334.92 473.14 336.22 473.14 336.59L473.14 346.48C473.14 346.66 473.11 347.77 473.18 347.9L473.44 348.07C473.79 348.19 474.98 348.27 475.19 347.89C475.3 347.69 475.23 347.01 475.23 346.78L475.25 343.88C475.26 343.55 475.19 343 475.4 342.71C475.66 342.34 477.28 342.49 477.73 342.49ZM479.75 336.62C481.24 337.36 481.45 339.11 480.07 340.11C479.4 340.59 477.47 340.5 476.68 340.49C476.32 340.49 475.84 340.53 475.49 340.36C475.19 340.21 475.27 339.74 475.26 339.46C475.24 339 475.12 336.79 475.43 336.49C475.69 336.24 476.31 336.32 476.63 336.32C477.06 336.32 478.82 336.26 479.2 336.35L479.75 336.62Z"/><g><path fill="#E2DDC8" d="M179.79 601.26L174.47 601.27C173.93 601.27 172.69 601.03 172.68 601.83C172.68 603.08 175.1 602.18 175.56 602.96C175.73 603.26 175.65 604.21 175.66 604.55L175.72 608.3C175.12 609.02 174.26 609.1 173.36 609.15C171.59 609.24 169.84 608.97 168.44 607.81C166.22 606 165.68 603.18 165.76 600.45C165.78 599.66 165.81 598.83 166.01 598.05C166.88 594.58 169.39 592.02 173.19 592.47C173.87 592.55 174.73 592.68 175.31 593.08C176 593.55 175.89 594.73 176.06 595.45C176.13 595.74 176.19 596.28 176.53 596.38L177.2 596.44C178.23 596.49 177.95 595.72 177.93 594.67C177.92 593.97 178.01 593.16 177.85 592.49C177.8 592.23 177.27 592.03 177.07 591.94C176.24 591.53 175.35 591.29 174.43 591.17C170.81 590.66 167.22 591.39 164.83 594.34C163.55 595.92 162.77 597.97 162.66 599.99C162.54 602.4 163.06 605.03 164.54 606.99C167.02 610.3 171.07 611.26 174.97 610.29C175.94 610.04 176.98 609.74 177.83 609.18C178.51 608.74 178.33 608.08 178.35 607.33L178.43 603.37C178.51 602.02 179.8 603 180.05 601.97C180.12 601.67 179.99 601.47 179.79 601.26ZM77.96 610.21C78.13 609.99 78.24 609.8 78.19 609.52C78.08 608.78 76.77 609.15 76.29 608.8C76.15 608.69 76.06 608.48 75.98 608.32C75.7 607.78 75.57 607.22 75.37 606.66C74.75 604.93 74.21 603.16 73.56 601.44L70.36 592.12C70.15 591.58 70.07 591.28 69.43 591.25L68.7 591.29C68.21 591.41 68.15 591.94 68.01 592.35L63.53 605.3C63.23 606.08 62.76 608.27 62.12 608.7C61.61 609.05 60.54 608.83 60.15 609.29C60.04 609.43 59.99 609.61 60.02 609.78C60.14 610.32 60.77 610.23 61.18 610.23L65 610.21C65.27 610.21 66.19 610.27 66.4 610.03C66.62 609.8 66.45 609.25 66.18 609.16C65.71 609 64.02 609.05 63.9 608.45C63.79 607.93 64.2 607.27 64.35 606.79C64.51 606.29 64.96 604.68 65.28 604.41C65.71 604.06 66.55 604.18 67.05 604.18C68.49 604.15 70 604.06 71.44 604.23C71.75 604.27 71.91 604.76 72.02 605C72.29 605.59 72.74 607 72.92 607.67C73 607.96 73.3 608.49 72.99 608.73C72.44 609.19 70.96 608.82 70.62 609.42C70.55 609.53 70.57 609.67 70.61 609.8C70.81 610.4 71.73 610.23 72.23 610.23L77.96 610.21ZM68.69 595.25C69.11 595.68 69.16 596.31 69.35 596.86L70.73 600.91C70.84 601.29 71.37 602.33 71.16 602.65C71.04 602.82 70.11 602.78 69.91 602.78C69.25 602.79 66.54 602.88 66.04 602.69C65.66 602.55 66.29 601.15 66.38 600.91L67.9 596.44C68.01 596.14 68.2 594.75 68.69 595.25ZM220 610.21C220.17 609.99 220.29 609.8 220.24 609.52C220.13 608.78 218.82 609.15 218.34 608.8C218.2 608.69 218.11 608.49 218.03 608.33C217.74 607.77 217.6 607.18 217.38 606.59L212.92 593.59C212.44 592.22 212.47 590.87 210.75 591.29C210.25 591.41 210.19 591.97 210.04 592.38L205.58 605.29C205.32 605.97 204.73 608.3 204.26 608.65C203.73 609.04 202.45 608.83 202.13 609.38C202.04 609.53 202.04 609.71 202.1 609.86C202.29 610.34 202.93 610.23 203.33 610.23L207.05 610.21C207.32 610.21 208.23 610.27 208.44 610.03C208.67 609.8 208.5 609.25 208.22 609.16C207.75 609 206.11 609.05 205.97 608.48C205.83 607.9 206.26 607.29 206.42 606.76C206.55 606.29 207 604.66 207.31 604.4C207.74 604.04 208.59 604.18 209.1 604.18C210.55 604.16 212.05 604.08 213.49 604.23C213.8 604.27 213.98 604.79 214.08 605.04L214.97 607.65C215.05 607.95 215.33 608.49 215.01 608.73C214.44 609.16 213.07 608.83 212.67 609.39C212.59 609.5 212.6 609.64 212.63 609.77C212.77 610.41 213.79 610.23 214.28 610.23L220 610.21ZM210.76 595.31C211.17 595.75 211.2 596.37 211.41 596.91L212.79 600.97C212.88 601.34 213.41 602.37 213.2 602.66C213.09 602.82 212.15 602.77 211.97 602.77C211.14 602.79 208.77 602.93 208.11 602.69C207.64 602.52 208.31 601.22 208.42 600.91L209.91 596.47C210.06 596.11 210.2 594.69 210.76 595.31ZM262.6 604.16C263.32 604.73 263.77 606.54 264.04 607.45C264.13 607.75 264.46 608.31 264.28 608.63C263.91 609.31 260.74 608.63 262.09 610.21L269.11 610.21C269.28 610 269.39 609.81 269.36 609.53C269.25 608.68 267.64 609.26 267.28 608.61C266.71 607.58 266.4 606.21 266.02 605.1L265.12 602.53C264.5 600.54 263.77 598.58 263.09 596.6C262.77 595.67 262.52 594.69 262.13 593.78C261.91 593.28 261.55 591.53 261.12 591.31C260.9 591.2 260.58 591.23 260.35 591.24C260.12 591.25 259.87 591.27 259.68 591.41C259.24 591.73 258.83 593.49 258.62 594.07C257.5 597.09 256.51 600.17 255.48 603.22L254.17 606.93C253.98 607.42 253.93 608 253.6 608.43C253.09 609.1 252.1 608.78 251.47 609.2C251.24 609.34 251.06 609.86 251.33 610.06C251.67 610.32 252.36 610.23 252.74 610.23L256.18 610.23C256.78 610.23 257.6 610.42 257.67 609.67C257.77 608.64 255.39 609.29 255.07 608.48C254.91 608.05 255.44 607.22 255.55 606.77C255.65 606.38 256.2 604.62 256.43 604.41C256.81 604.08 257.85 604.2 258.3 604.2L262.6 604.16ZM262.23 602.78L258.53 602.78C258.3 602.78 257.33 602.86 257.17 602.63C256.92 602.28 257.39 601.39 257.52 601.05C258.04 599.64 258.41 598.17 258.95 596.77C259.07 596.45 259.36 595.25 259.63 595.19C260.2 595.08 260.38 596.48 260.51 596.82C261.05 598.23 261.54 599.67 261.97 601.12C262.15 601.69 262.6 602.21 262.23 602.78ZM114.92 610.21C116.15 608.67 113.11 609.15 113 608.43C112.86 607.6 112.94 606.67 112.93 605.83L112.84 596.45C112.84 596.3 112.8 595.85 113.01 595.79C113.35 595.69 113.49 596.3 113.56 596.5C113.86 597.38 114.32 598.21 114.6 599.1L116.59 603.88C117.1 605.1 117.49 606.37 118.08 607.56C118.37 608.15 118.76 609.99 119.41 610.13L120.05 610.15C120.77 610.11 120.81 609.62 121.02 609.03L126.04 596.17C126.08 596.04 126.35 595.32 126.47 595.35C126.69 595.41 126.67 595.91 126.68 596.08L126.72 598.47L126.69 605.33C126.67 606.36 126.73 607.43 126.58 608.44C126.5 609.05 124.76 608.92 124.36 609.25C123.96 609.56 124.26 610.09 124.64 610.16C125.88 610.39 128.78 610.23 130.11 610.22C130.36 610.21 131.84 610.29 131.93 609.94C132.3 608.45 129.74 609.43 129.46 608.58C129.21 607.84 129.32 606.55 129.31 605.78L129.33 595.3C129.34 594.76 129.23 593.56 129.42 593.05C129.59 592.58 131.17 592.74 131.65 592.52C131.96 592.37 132.07 591.8 131.8 591.56C131.5 591.28 129.32 591.4 128.92 591.4C128.47 591.4 126.8 591.28 126.42 591.55C126.15 591.74 125.25 594.31 125.1 594.78L121.01 605.32C120.92 605.58 120.83 606.18 120.51 606.27C120.03 606.39 119.87 605.54 119.75 605.26C119.28 604.04 118.64 602.79 118.24 601.56C117.95 600.63 117.2 599.02 116.79 598.06L115.27 594.31C114.97 593.6 114.55 592.02 113.99 591.56C113.7 591.3 113.11 591.39 112.75 591.38C112.12 591.37 109.72 591.24 109.23 591.47C108.72 591.69 108.86 592.39 109.32 592.59C109.72 592.75 111.15 592.65 111.3 592.96C111.43 593.25 111.38 594.35 111.39 594.69L111.43 598.92L111.4 605.25C111.39 606.22 111.48 607.6 111.29 608.53C111.18 609.11 108.22 608.69 108.95 609.95C109.16 610.32 110.2 610.23 110.54 610.23L114.92 610.21ZM45.99 603.17C46.09 603.08 46.2 602.94 46.34 602.89C46.71 602.77 48.85 602.81 49.49 602.75C52.13 602.51 54.88 600.93 55.34 598.13C55.46 597.44 55.41 596.73 55.28 596.04C55.06 594.95 54.57 594 53.76 593.23C51.56 591.14 48.32 591.49 45.53 591.48L42.04 591.48C41.74 591.49 41.04 591.38 40.82 591.66C40.71 591.79 40.72 591.99 40.73 592.15C40.81 593.24 42.91 592.34 43.2 593.13C43.35 593.54 43.27 594.88 43.28 595.34L43.27 606C43.26 606.53 43.35 608.15 43.2 608.61C42.94 609.43 40 608.57 40.75 610.03C40.96 610.42 42.16 610.29 42.54 610.3L47.27 610.29C47.79 610.28 48.79 610.43 48.62 609.56C48.45 608.68 46.55 609.37 46.14 608.7C45.87 608.25 46 607.43 45.99 606.95L45.99 603.17ZM49.86 593.11C50.49 593.31 51.11 593.59 51.58 594.07C53.06 595.57 53.01 598.58 51.73 600.19C51.17 600.88 49.93 601.48 49.07 601.62C48.59 601.7 48.04 601.62 47.55 601.62C47.17 601.62 46.71 601.67 46.34 601.55C45.96 601.43 46.03 600.87 46.02 600.56L46.05 594.13C46.06 593.84 45.95 593.15 46.24 592.95C46.65 592.68 47.89 592.84 48.36 592.86C48.89 592.87 49.36 592.96 49.86 593.11ZM87.68 593.22L87.65 607.71C87.6 609.02 87.56 608.86 86.17 609.05C85.92 609.09 85.58 609.08 85.34 609.19C84.85 609.43 85.14 609.97 85.4 610.24L92.72 610.24C92.91 610.05 93 609.9 92.99 609.62C92.95 608.61 90.88 609.4 90.49 608.49C90.3 608.05 90.39 606.88 90.38 606.41L90.33 602.02C90.88 601.38 91.92 601.59 92.67 601.65C94.09 601.77 95.01 602.24 95.48 603.7L96.52 607.75C96.69 608.44 96.81 609.11 97.22 609.71C97.86 610.64 101.13 610.98 101.73 609.98C102.43 608.81 99.98 609.34 99.46 608.37C99.28 608.04 99.25 607.66 99.16 607.3C98.83 606.14 98.47 604.63 97.95 603.56C97.67 602.99 97.3 602.43 96.83 602C96.56 601.76 96.14 601.62 95.95 601.3C95.79 601.05 96.07 600.87 96.28 600.78C97.16 600.42 97.93 600.04 98.6 599.34C100.16 597.71 100.15 595.1 98.69 593.42C97.1 591.58 94.64 591.53 92.39 591.47L88.68 591.42C88.24 591.42 85.56 591.36 85.28 591.54C85.12 591.64 85.07 591.88 85.08 592.04C85.1 593.11 86.82 592.5 87.42 592.91L87.68 593.22ZM90.71 600.29L90.32 599.96L90.37 594.89C90.37 594.69 90.34 593.11 90.42 593C90.7 592.61 92.66 592.75 93.11 592.77C94.32 592.8 95.57 593.13 96.34 594.13C96.6 594.47 96.74 594.87 96.86 595.28C97.43 597.29 96.39 599.52 94.3 600.09C93.26 600.38 91.8 600.26 90.71 600.29ZM140.39 610.24L154.31 610.24L154.65 609.94C154.68 608.82 154.88 606.65 154.7 605.71C154.59 605.17 153.48 605.16 153.23 605.52C152.85 606.07 152.87 608.45 152.37 608.76C152.08 608.93 151.54 608.84 151.23 608.85L148.41 608.86C148.03 608.86 145.74 609 145.49 608.63C145.22 608.22 145.33 607.01 145.33 606.55L145.3 601.6C145.71 601.18 146.27 601.29 146.84 601.28L147.81 601.27C148.11 601.27 148.96 601.18 149.24 601.33C149.75 601.6 149.63 603.25 150.03 603.74C150.34 604.12 150.89 603.83 151.14 603.58L151.14 598.91C151.13 598.32 151.29 597.44 150.53 597.3C150.33 597.26 150.16 597.35 150.04 597.52C149.62 598.16 149.75 599.42 149.29 599.91C149.11 600.09 148.6 600.02 148.38 600.02C147.88 600.02 145.84 600.12 145.49 599.84C145.17 599.59 145.28 598.8 145.27 598.46L145.33 594.49C145.34 594.07 145.18 593.07 145.71 592.88C146.18 592.72 149.56 592.81 150.15 592.81C150.57 592.81 151.51 592.72 151.88 592.97C152.13 593.14 152.1 593.66 152.15 593.92C152.22 594.33 152.53 596.16 152.76 596.36C152.9 596.48 153.2 596.45 153.38 596.45C153.7 596.44 153.94 596.4 154.2 596.23L154.13 593.03C154.12 592.64 154.19 591.98 153.94 591.65C153.71 591.33 152.24 591.46 151.91 591.46L141.71 591.45C141.38 591.46 140.49 591.36 140.24 591.61C139.94 591.92 140.01 592.44 140.43 592.59C141.01 592.8 142.34 592.54 142.58 593.19C142.73 593.59 142.64 595.07 142.65 595.53L142.65 606.18C142.64 606.63 142.72 608.1 142.58 608.48C142.23 609.43 140.21 608.65 140.03 609.57C139.98 609.88 140.19 610.05 140.39 610.24ZM187.3 610.21L194.64 610.24C194.86 610.03 194.99 609.91 194.95 609.59C194.85 608.64 192.8 609.38 192.48 608.51C192.32 608.04 192.4 606.9 192.4 606.39L192.37 595.98C192.38 595.32 192.29 593.79 192.46 593.19C192.69 592.37 194.63 593.17 194.91 592.22C194.96 592.07 194.96 591.9 194.89 591.76C194.67 591.32 193.75 591.46 193.36 591.44C191.79 591.39 190.22 591.39 188.66 591.44C188.18 591.46 186.93 591.31 187.07 592.15C187.26 593.17 189.32 592.34 189.58 593.16C189.75 593.68 189.65 595.76 189.65 596.37L189.65 607.08C189.64 607.52 189.75 608.21 189.51 608.62C189.11 609.31 186.11 608.65 187.3 610.21ZM233.6 610.21C234.62 608.93 232.32 608.97 231.58 608.8C231.39 608.77 230.97 608.71 230.89 608.46C230.71 607.84 230.82 605.98 230.82 605.3L230.86 596.31C230.86 596.18 230.82 595.66 230.99 595.6C231.14 595.54 231.61 596.17 231.68 596.27L240.19 607.84C240.7 608.54 241.18 609.29 241.75 609.95C241.98 610.21 242.34 610.56 242.73 610.35C243.16 610.13 243 608.4 243.01 607.99L243.05 595.47C243.05 595.05 242.97 593.64 243.11 593.28C243.46 592.38 245.48 593.12 245.47 592.11C245.46 591.19 244.52 591.43 243.81 591.43C243.22 591.43 239.42 591.33 238.94 591.49C238.58 591.61 238.65 592.42 238.91 592.6C239.44 592.98 241.33 592.5 241.6 593.27C241.78 593.82 241.68 595.52 241.68 596.11L241.66 604.23C241.66 604.34 241.69 604.8 241.52 604.83C241.28 604.87 240.79 604.25 240.67 604.07L233.92 594.78C233.31 593.93 232.23 592.17 231.49 591.62C231.25 591.45 230.73 591.51 230.45 591.5C229.85 591.47 227.89 591.3 227.4 591.6C227.1 591.79 227.1 592.37 227.4 592.56C227.92 592.88 229.1 592.5 229.31 593.25C229.48 593.84 229.39 594.88 229.41 595.51L229.45 600.13L229.42 605.71C229.41 606.47 229.49 607.75 229.31 608.47C229.1 609.34 227.06 608.56 227.05 609.66C227.05 609.78 227.03 609.94 227.1 610.04C227.28 610.32 228.58 610.24 228.86 610.24L233.6 610.21Z"/><path fill="#E2DDC8" d="M291.28 593.08L291.3 603.27C291.3 604.94 291.41 606.67 291.26 608.34C291.17 609.36 288.29 608.24 288.73 609.81C288.85 610.27 289.29 610.2 289.67 610.2L292.31 610.18C295.42 610.13 299.59 610.4 302.26 608.5C303.85 607.37 305.17 605.75 305.63 603.82C305.75 603.3 305.92 602.78 305.98 602.24C306.44 598.53 305.23 594.13 301.64 592.37C299.62 591.37 298.04 591.34 295.87 591.32L290.47 591.32C290.1 591.32 288.91 591.18 288.72 591.6C288.65 591.74 288.66 591.91 288.7 592.07C288.92 592.81 290.47 592.32 291.28 593.08ZM293.99 608.52L293.99 595.05C294 594.68 293.93 593.1 294.16 592.79C294.36 592.54 294.96 592.62 295.21 592.63C296.2 592.63 297.23 592.65 298.2 592.87C301.97 593.72 302.95 597.32 302.95 600.7C302.95 601.47 302.97 602.25 302.84 603.02C302.27 606.47 300.12 608.75 296.55 608.85C296.04 608.86 294.67 608.94 294.27 608.77L293.99 608.52ZM318.81 601.38C319.38 600.95 321.03 601.12 321.74 601.14C322.07 601.15 322.66 601.09 322.88 601.42C323.22 601.92 323 602.8 323.32 603.39C323.6 603.9 324.18 603.88 324.55 603.51L324.57 598.35C324.57 598.04 324.63 597.56 324.45 597.28C324.28 597.01 323.43 597.23 323.3 597.47C323.02 597.97 323.17 599.36 322.83 599.66C322.56 599.89 322.01 599.82 321.68 599.82C321.03 599.82 319.33 599.98 318.77 599.61L318.78 594.48C318.79 594.25 318.72 592.83 319.06 592.74C319.83 592.55 322.65 592.68 323.56 592.7C324.05 592.71 324.86 592.58 325.29 592.9C325.78 593.26 325.66 595.18 326.03 595.89C326.28 596.36 327.46 596.41 327.63 595.89C327.79 595.36 327.63 594.59 327.59 594.04C327.57 593.58 327.6 591.83 327.36 591.51C327.14 591.23 325.7 591.32 325.41 591.31L315.2 591.31C314.92 591.31 313.91 591.23 313.66 591.41C313.4 591.61 313.4 592.23 313.72 592.37C314.26 592.6 315.72 592.41 316 593.02C316.2 593.46 316.09 594.46 316.09 594.93L316.09 605.5C316.09 606.11 316.18 607.87 316.05 608.41C315.86 609.21 312.91 608.3 313.56 609.84C313.74 610.28 314.35 610.16 314.73 610.16L325.44 610.17C325.81 610.17 327.59 610.28 327.87 609.95C328.19 609.57 328.15 607.84 328.17 607.36C328.19 606.85 328.35 605.79 328.13 605.33C327.98 605.03 326.85 604.99 326.64 605.45C326.34 606.11 326.18 608.31 325.88 608.57C325.63 608.79 324.75 608.71 324.43 608.72L320.52 608.72C320.32 608.71 319.08 608.75 318.95 608.63C318.66 608.37 318.78 606.99 318.78 606.65L318.81 601.38ZM338.61 593.16L338.58 607.48C338.54 608.75 338.55 608.69 337.22 608.81C336.97 608.83 336.67 608.83 336.43 608.92C335.86 609.15 336.08 609.79 336.39 610.11L346.63 610.11C346.96 610.1 349.54 610.17 349.74 610.06C349.91 609.96 349.94 609.72 349.97 609.54C350.08 608.91 350.09 608.24 350.13 607.6L350.22 606.29C350.24 605.95 350.34 605.47 350.19 605.15C349.94 604.65 348.92 604.8 348.6 605.11C348.45 605.25 348.02 607.44 347.92 607.84C347.87 608.05 347.85 608.49 347.63 608.64C347.39 608.8 346.83 608.72 346.56 608.72L343.84 608.73C343.47 608.73 341.76 608.86 341.48 608.54C341.29 608.33 341.37 607.73 341.37 607.47L341.38 597C341.38 596.11 341.27 593.89 341.46 593.05C341.67 592.15 344.26 593.01 343.96 591.69C343.85 591.19 342.59 591.32 342.22 591.32L337.69 591.32C337.28 591.32 336.4 591.16 336.12 591.56C335.88 591.9 336.05 592.29 336.43 592.41C337.28 592.66 337.95 592.44 338.61 593.16ZM360.46 608.45C359.78 609.11 357.99 608.47 357.89 609.45C357.87 609.64 357.89 609.86 358.01 610.02C358.18 610.24 359.18 610.16 359.44 610.16L363.96 610.18C364.22 610.17 365.61 610.25 365.73 609.92L365.74 609.52C365.73 608.26 363.28 609.25 363.21 608.37C363.09 606.69 363.17 604.98 363.17 603.3L363.17 593.16C363.89 592.22 365.43 592.72 365.72 592.24L365.77 591.83L365.74 591.5C365.55 591.23 364.28 591.31 364 591.3L358.18 591.3C357.89 591.6 357.62 592.26 358.2 592.42C359.69 592.82 360.42 592.15 360.47 593.79C360.6 598.67 360.47 603.57 360.46 608.45ZM385.17 591.33C384.97 591.58 384.77 591.81 384.9 592.15C385.21 592.97 387.21 592.46 387.19 593.24C387.18 593.71 386.24 596.21 386.02 596.81C385.28 598.82 384.72 600.88 383.98 602.88L383.24 605.04C383.21 605.19 383.14 605.74 382.92 605.76C382.65 605.79 382.29 604.88 382.22 604.67L380.92 600.87C380.27 599.13 379.48 596.99 378.93 595.23C378.74 594.62 378.23 593.78 378.31 593.15C378.4 592.3 381.04 593.11 380.73 591.75C380.6 591.2 379.47 591.33 379.06 591.32L374.83 591.31C374.53 591.31 373.51 591.23 373.28 591.43C373.03 591.65 373.01 592.22 373.34 592.38C374.04 592.73 374.87 592.34 375.32 593.13C375.83 594.04 376.1 595.11 376.46 596.09L377.74 599.41L378.58 601.77L380.89 607.88C381.05 608.28 381.55 609.98 381.78 610.18C382 610.37 382.45 610.35 382.72 610.28C383.2 610.18 383.68 608.24 383.85 607.74L387.87 595.94C388.04 595.39 388.56 593.6 388.8 593.23C389.33 592.42 391.76 592.74 391.35 591.72C391.13 591.17 390.18 591.31 389.73 591.31L385.17 591.33ZM398.83 610.14L408.7 610.17C409.31 610.17 412.41 610.29 412.92 610.01C413.24 609.84 413.18 608.88 413.2 608.61C413.22 608.2 413.38 605.6 413.24 605.37C413.03 605.01 412.29 605.03 411.97 605.18C411.68 605.32 411.58 605.87 411.51 606.14C411.31 606.94 411.38 608.17 410.79 608.73L404.19 608.73C403.77 608.31 403.85 607.63 403.83 607.07L403.8 603.07C403.8 602.68 403.66 601.38 404.16 601.2C404.59 601.04 406.34 601.14 406.88 601.15C407.12 601.15 407.59 601.08 407.82 601.24C408.21 601.51 408.14 602.91 408.45 603.44C408.56 603.62 408.77 603.78 408.99 603.81C409.68 603.93 409.62 603.04 409.63 602.61L409.66 597.89C409.63 596.95 408.78 597.04 408.52 597.32C408.15 597.71 408.16 598.57 408.09 599.06C407.98 599.77 407.92 599.78 407.17 599.8L405.41 599.82C405.01 599.82 404.39 599.92 404.01 599.73C403.72 599.59 403.81 598.35 403.8 598.08L403.83 594.37C403.86 593.66 403.74 593.2 404.25 592.69L408.64 592.69C409.07 592.69 410.14 592.6 410.47 592.95C410.89 593.4 410.68 595.81 411.37 596.17C411.56 596.27 411.81 596.26 412.02 596.25C412.22 596.24 412.48 596.22 412.62 596.04C412.86 595.74 412.66 593.31 412.64 592.83C412.62 592.54 412.68 591.77 412.49 591.52C412.36 591.34 411.92 591.38 411.73 591.37L401.12 591.33C400.75 591.33 399.11 591.24 398.83 591.34L398.63 591.52C398.54 591.67 398.52 591.85 398.55 592.02C398.74 592.92 400.97 592.24 401.07 593.01C401.23 594.2 401.16 595.44 401.17 596.64L401.18 604.66L401.13 607.52C401.12 607.79 401.2 608.38 401.02 608.62C400.65 609.1 398.66 608.45 398.58 609.43C398.56 609.73 398.66 609.92 398.83 610.14ZM426.47 608.48L426.43 601.69C426.92 601.25 427.76 601.43 428.37 601.45C430.96 601.53 431.35 602.9 431.85 605.11L432.65 608.19C432.77 608.58 432.84 609.01 433.06 609.35C433.32 609.74 433.86 610.22 434.33 610.35C434.65 610.43 435.88 610.35 436.25 610.34C436.61 610.33 437.34 610.41 437.58 610.06C437.68 609.9 437.68 609.68 437.67 609.5C437.64 608.37 436.02 609.18 435.6 608.55C435.11 607.8 434.49 604.37 433.76 603.03C433.46 602.49 433.04 602 432.55 601.64C432.39 601.53 431.77 601.27 431.73 601.14C431.69 600.98 432.08 600.78 432.18 600.72C432.71 600.41 433.31 600.25 433.82 599.88C434.98 599.07 435.71 597.7 435.75 596.28C435.77 595.19 435.45 594.16 434.74 593.34C432.6 590.84 428.51 591.3 425.55 591.3L422.53 591.33C422.22 591.33 421.63 591.24 421.35 591.41C421.02 591.6 420.98 592.18 421.35 592.35C421.9 592.61 423.34 592.43 423.62 593.12C423.81 593.62 423.71 594.79 423.72 595.32L423.75 605.61C423.75 606.26 423.83 607.77 423.66 608.36C423.41 609.24 421.33 608.38 421.18 609.41C421.15 609.59 421.17 609.79 421.28 609.95C421.5 610.29 422.44 610.17 422.78 610.17L427.2 610.17C427.52 610.17 428.75 610.23 428.95 609.91C429.03 609.8 429.02 609.63 429.01 609.5C428.99 608.49 427.25 609.16 426.47 608.48ZM426.4 599.89L426.38 596C426.38 595.53 426.25 593.12 426.6 592.77C426.85 592.51 427.97 592.62 428.28 592.62C430.03 592.62 432.14 592.89 432.77 594.82C432.93 595.32 432.93 595.85 432.93 596.37C432.93 598.9 431.09 599.98 428.78 600.17C428.01 600.23 427.03 600.43 426.4 599.89ZM452.75 608.41C452.7 606.77 452.46 604.17 452.78 602.67C453 601.58 453.7 600.58 454.17 599.59L457.16 593.4C457.8 592.2 459.71 592.91 459.89 591.98C459.94 591.72 459.82 591.46 459.58 591.36C459.17 591.19 457.41 591.31 456.92 591.31L454.97 591.32C454.7 591.33 453.75 591.27 453.54 591.5C453.31 591.76 453.46 592.25 453.75 592.37C454.17 592.54 455.74 592.51 455.74 593.13C455.74 593.74 455.24 594.42 454.98 594.95L453 599.07C452.87 599.36 452.33 600.84 452.01 600.77C451.55 600.67 451.32 599.69 451.12 599.32C450.31 597.82 449.69 596.19 448.96 594.65C448.78 594.26 448.06 593.17 448.39 592.79C448.84 592.27 450.4 592.75 450.68 592.18C451.21 591.09 449.52 591.32 449 591.31L443.08 591.3C441.97 592.72 444.24 592.4 444.69 592.6C445 592.74 445.26 593.16 445.42 593.45C446.1 594.7 446.68 596.03 447.3 597.33L448.76 600.33C449.09 601.06 449.82 602.06 449.97 602.82C450.07 603.32 449.97 606.25 449.97 606.87C449.96 607.25 450.05 608.13 449.83 608.46C449.36 609.16 447.16 608.34 447.12 609.37C447.11 609.57 447.15 609.79 447.27 609.95C447.42 610.18 448.54 610.1 448.78 610.1L453.62 610.11C453.91 610.11 455.3 610.19 455.48 609.91C455.68 609.61 455.49 609.03 455.16 608.94C454.33 608.71 453.43 608.99 452.75 608.41Z"/></g></g></svg>
